<svg width="800" height="800" viewBox="0 0 800 800" fill="none" xmlns="http://www.w3.org/2000/svg">
<path opacity="0.5" d="M400 733.333C584.093 733.333 733.333 584.093 733.333 400C733.333 215.905 584.093 66.6667 400 66.6667C215.905 66.6667 66.6667 215.905 66.6667 400C66.6667 453.323 79.1873 503.72 101.449 548.417C107.365 560.293 109.334 573.87 105.904 586.687L86.0504 660.89C77.4317 693.1 106.9 722.567 139.112 713.95L213.313 694.097C226.131 690.667 239.707 692.637 251.584 698.55C296.279 720.813 346.677 733.333 400 733.333Z" fill="#F1F2F9"/>
<path fill-rule="evenodd" clip-rule="evenodd" d="M400.013 225.846C384.827 225.846 372.513 238.159 372.513 253.346V546.68C372.513 561.867 384.827 574.18 400.013 574.18C415.2 574.18 427.513 561.867 427.513 546.68V253.346C427.513 238.159 415.2 225.846 400.013 225.846Z" fill="#1C274C"/>
<path fill-rule="evenodd" clip-rule="evenodd" d="M253.346 299.18C238.159 299.18 225.846 311.492 225.846 326.68V473.347C225.846 488.533 238.159 500.847 253.346 500.847C268.534 500.847 280.846 488.533 280.846 473.347V326.68C280.846 311.492 268.534 299.18 253.346 299.18Z" fill="#1C274C"/>
<path d="M519.18 326.68C519.18 311.492 531.493 299.18 546.68 299.18C561.867 299.18 574.18 311.492 574.18 326.68V473.347C574.18 488.533 561.867 500.847 546.68 500.847C531.493 500.847 519.18 488.533 519.18 473.347V326.68Z" fill="#1C274C"/>
</svg>
