<svg width="90" height="87" viewBox="0 0 90 87" fill="none" xmlns="http://www.w3.org/2000/svg">
<rect width="90" height="87" fill="white"/>
<path d="M8.94353 35.0424L21 26L29.393 21.0629C35.0284 17.748 41.4476 16 47.9857 16C50.9839 16 53.9687 16.3612 56.8702 17.1167C64.8285 19.1889 76.1808 22.3404 79.5 24C85.5549 27.0274 86.9563 34.7173 84.8022 41.135C84.7051 41.4243 84.6044 41.7129 84.5 42C83.7969 43.9334 82.9394 45.4871 82.114 46.6781C80.7385 48.6629 79.5 50.9505 79.5 53.3653C79.5 56.1894 77.8411 58.7323 75.3717 60.1025C71.288 62.3687 66.4457 65.6085 65 68.5C62.5 73.5 39 70.5 31 70.5C23 70.5 19 64.5 17.5 62.5C16.5204 61.1939 13.6217 59.1059 10.1964 56.9323C6.66808 54.6934 4.23665 51.0421 3.79148 46.8871C3.30072 42.3067 5.25823 37.8063 8.94353 35.0424Z" fill="#7A84BA" fill-opacity="0.4"/>
<path d="M7.94353 30.0424L20 21L28.393 16.0629C34.0284 12.748 40.4476 11 46.9857 11C49.9839 11 52.9687 11.3612 55.8702 12.1167C63.8285 14.1889 75.1808 17.3404 78.5 19C84.5549 22.0274 85.9563 29.7173 83.8022 36.135C83.7051 36.4243 83.6044 36.7129 83.5 37C82.7969 38.9334 81.9394 40.4871 81.114 41.6781C79.7385 43.6629 78.5 45.9505 78.5 48.3653C78.5 51.1894 76.8411 53.7323 74.3717 55.1025C70.288 57.3687 65.4457 60.6085 64 63.5C61.5 68.5 38 65.5 30 65.5C22 65.5 18 59.5 16.5 57.5C15.5204 56.1939 12.6217 54.1059 9.19638 51.9323C5.66808 49.6934 3.23665 46.0421 2.79148 41.8871C2.30072 37.3067 4.25823 32.8063 7.94353 30.0424Z" fill="#7A84BA" fill-opacity="0.1"/>
<path d="M7.94353 41.0424L20 32L28.393 27.0629C34.0284 23.748 40.4476 22 46.9857 22C49.9839 22 52.9687 22.3612 55.8702 23.1167C63.8285 25.1889 75.1808 28.3404 78.5 30C84.5549 33.0274 85.9563 40.7173 83.8022 47.135C83.7051 47.4243 83.6044 47.7129 83.5 48C82.7969 49.9334 81.9394 51.4871 81.114 52.6781C79.7385 54.6629 78.5 56.9505 78.5 59.3653C78.5 62.1894 76.8411 64.7323 74.3717 66.1025C70.288 68.3687 65.4457 71.6085 64 74.5C61.5 79.5 38 76.5 30 76.5C22 76.5 18 70.5 16.5 68.5C15.5204 67.1939 12.6217 65.1059 9.19638 62.9323C5.66808 60.6934 3.23665 57.0421 2.79148 52.8871C2.30072 48.3067 4.25823 43.8063 7.94353 41.0424Z" fill="#7A84BA" fill-opacity="0.1"/>
<path d="M51 41L53.4536 33.9405C51.333 30.9326 50.5659 27.3706 51.2949 23.9167C52.0238 20.4628 54.1993 17.3521 57.4168 15.1629C60.6343 12.9738 64.6748 11.8551 68.7872 12.0151C72.8996 12.175 76.8039 13.6025 79.7743 16.0323C82.7446 18.462 84.5789 21.7287 84.9359 25.2248C85.293 28.721 84.1487 32.2087 81.7156 35.0395C79.2826 37.8704 75.7264 39.8517 71.7084 40.6151C67.6903 41.3785 63.4838 40.872 59.8709 39.1899L51 41Z" fill="#D9D9D9"/>
<path d="M51 45L53.4536 37.9405C51.333 34.9326 50.5659 31.3706 51.2949 27.9167C52.0238 24.4628 54.1993 21.3521 57.4168 19.1629C60.6343 16.9738 64.6748 15.8551 68.7872 16.0151C72.8996 16.175 76.8039 17.6025 79.7743 20.0323C82.7446 22.462 84.5789 25.7287 84.9359 29.2248C85.293 32.721 84.1487 36.2087 81.7156 39.0395C79.2826 41.8704 75.7264 43.8517 71.7084 44.6151C67.6903 45.3785 63.4838 44.872 59.8709 43.1899L51 45Z" fill="#D9D9D9" fill-opacity="0.1"/>
<path d="M47 76L44.5464 68.9405C46.667 65.9326 47.4341 62.3706 46.7051 58.9167C45.9762 55.4628 43.8007 52.3521 40.5832 50.1629C37.3657 47.9738 33.3251 46.8551 29.2128 47.0151C25.1004 47.175 21.1961 48.6025 18.2257 51.0323C15.2554 53.462 13.4211 56.7287 13.0641 60.2248C12.707 63.721 13.8513 67.2087 16.2844 70.0395C18.7174 72.8704 22.2735 74.8517 26.2916 75.6151C30.3097 76.3785 34.5162 75.872 38.1291 74.1899L47 76Z" fill="#D9D9D9"/>
<path d="M47 79L44.5464 71.9405C46.667 68.9326 47.4341 65.3706 46.7051 61.9167C45.9762 58.4628 43.8007 55.3521 40.5832 53.1629C37.3657 50.9738 33.3251 49.8551 29.2128 50.0151C25.1004 50.175 21.1961 51.6025 18.2257 54.0323C15.2554 56.462 13.4211 59.7287 13.0641 63.2248C12.707 66.721 13.8513 70.2087 16.2844 73.0395C18.7174 75.8704 22.2735 77.8517 26.2916 78.6151C30.3097 79.3785 34.5162 78.872 38.1291 77.1899L47 79Z" fill="#D9D9D9" fill-opacity="0.1"/>
<path d="M21.5 57H37.5" stroke="#7A84BA" stroke-width="3" stroke-linecap="round"/>
<path d="M62 23H78" stroke="#7A84BA" stroke-width="3" stroke-linecap="round"/>
<path d="M59 29H75" stroke="#7A84BA" stroke-width="3" stroke-linecap="round"/>
<path d="M17 62H33" stroke="#7A84BA" stroke-width="3" stroke-linecap="round"/>
<path d="M24 67H40" stroke="#7A84BA" stroke-width="3" stroke-linecap="round"/>
</svg>
