<svg width="50" height="50" viewBox="0 0 50 50" fill="none" xmlns="http://www.w3.org/2000/svg">
<rect width="50" height="50" fill="white"/>
<path d="M10 17.5V13.75C10 12.7554 10.3951 11.8016 11.0983 11.0983C11.8016 10.3951 12.7554 10 13.75 10H17.5M10 32.5V36.25C10 37.2446 10.3951 38.1984 11.0983 38.9016C11.8016 39.6049 12.7554 40 13.75 40H17.5M32.5 10H36.25C37.2446 10 38.1984 10.3951 38.9016 11.0983C39.6049 11.8016 40 12.7554 40 13.75V17.5M32.5 40H36.25C37.2446 40 38.1984 39.6049 38.9016 38.9016C39.6049 38.1984 40 37.2446 40 36.25V32.5M17.5 32.5C17.5 31.5054 17.8951 30.5516 18.5984 29.8484C19.3016 29.1451 20.2554 28.75 21.25 28.75H28.75C29.7446 28.75 30.6984 29.1451 31.4016 29.8484C32.1049 30.5516 32.5 31.5054 32.5 32.5M21.25 19.375C21.25 20.3696 21.6451 21.3234 22.3484 22.0266C23.0516 22.7299 24.0054 23.125 25 23.125C25.9946 23.125 26.9484 22.7299 27.6516 22.0266C28.3549 21.3234 28.75 20.3696 28.75 19.375C28.75 18.3804 28.3549 17.4266 27.6516 16.7233C26.9484 16.0201 25.9946 15.625 25 15.625C24.0054 15.625 23.0516 16.0201 22.3484 16.7233C21.6451 17.4266 21.25 18.3804 21.25 19.375Z" stroke="black" stroke-width="3.5" stroke-linecap="round" stroke-linejoin="round"/>
</svg>
