<svg width="38" height="36" viewBox="0 0 38 36" fill="none" xmlns="http://www.w3.org/2000/svg">
<rect width="38" height="36" fill="#7A84BA" fill-opacity="0.8"/>
<path d="M9.28005 29.415C9.69256 28.042 10.5367 26.8386 11.6871 25.9833C12.8376 25.128 14.2331 24.6662 15.6667 24.6667H22.3334C23.7688 24.6662 25.1661 25.129 26.3174 25.9863C27.4687 26.8436 28.3125 28.0496 28.7234 29.425M4 18C4 19.9698 4.38799 21.9204 5.14181 23.7403C5.89563 25.5601 7.00052 27.2137 8.3934 28.6066C9.78628 29.9995 11.4399 31.1044 13.2597 31.8582C15.0796 32.612 17.0302 33 19 33C20.9698 33 22.9204 32.612 24.7403 31.8582C26.5601 31.1044 28.2137 29.9995 29.6066 28.6066C30.9995 27.2137 32.1044 25.5601 32.8582 23.7403C33.612 21.9204 34 19.9698 34 18C34 16.0302 33.612 14.0796 32.8582 12.2597C32.1044 10.4399 30.9995 8.78628 29.6066 7.3934C28.2137 6.00052 26.5601 4.89563 24.7403 4.14181C22.9204 3.38799 20.9698 3 19 3C17.0302 3 15.0796 3.38799 13.2597 4.14181C11.4399 4.89563 9.78628 6.00052 8.3934 7.3934C7.00052 8.78628 5.89563 10.4399 5.14181 12.2597C4.38799 14.0796 4 16.0302 4 18ZM14 14.6667C14 15.9927 14.5268 17.2645 15.4645 18.2022C16.4021 19.1399 17.6739 19.6667 19 19.6667C20.3261 19.6667 21.5979 19.1399 22.5355 18.2022C23.4732 17.2645 24 15.9927 24 14.6667C24 13.3406 23.4732 12.0688 22.5355 11.1311C21.5979 10.1935 20.3261 9.66667 19 9.66667C17.6739 9.66667 16.4021 10.1935 15.4645 11.1311C14.5268 12.0688 14 13.3406 14 14.6667Z" stroke="white" stroke-opacity="0.8" stroke-width="3" stroke-linecap="round" stroke-linejoin="round"/>
</svg>
