<svg width="135" height="84" viewBox="0 0 135 84" fill="none" xmlns="http://www.w3.org/2000/svg">
<g clip-path="url(#clip0_28_106)">
<rect width="135" height="84" fill="white"/>
<path d="M90.2512 7.01731L55.0448 3.28111C49.7386 2.718 44.3799 2.89481 39.1224 3.80648L37.0114 4.17253C29.8748 5.41004 23.1086 8.23934 17.2153 12.4503L10.7915 17.0404C8.42394 18.7321 6.52007 20.9923 5.25517 23.6127C1.16299 32.0905 4.58039 42.2848 12.9555 46.5832L24.4819 52.4989C28.9278 54.7807 32.0866 58.9697 33.0577 63.8716L33.5531 66.372C35.594 76.6734 47.4831 81.5548 56.1739 75.6596C59.7736 73.2178 64.2715 72.4997 68.4525 73.6994L78.8652 76.687C93.9613 81.0185 110.163 75.5678 119.572 62.9925L122.225 59.4465C123.075 58.3105 123.83 57.1069 124.483 55.8475C129.313 46.5391 128.073 35.2399 121.34 27.2002L115.873 20.6729C109.425 12.973 100.239 8.07721 90.2512 7.01731Z" fill="#7A84BA" fill-opacity="0.4"/>
<path d="M-3.5 79H134" stroke="black" stroke-opacity="0.8" stroke-width="0.2" stroke-linecap="round"/>
<path d="M92 46V78.4C92 78.4552 91.9552 78.5 91.9 78.5H50L42.5804 77.0161C42.5336 77.0067 42.5 76.9657 42.5 76.918V45H81.5L92 46Z" fill="#D9D9D9"/>
<path d="M50 46H92M50 46V78.5M50 46L42.5 45M92 46V78.4C92 78.4552 91.9552 78.5 91.9 78.5H50M92 46L81.5 45H42.5M50 78.5L42.5804 77.0161C42.5336 77.0067 42.5 76.9657 42.5 76.918V45" stroke="black" stroke-opacity="0.8" stroke-width="0.2" stroke-linecap="round"/>
<path d="M54.47 51.96L50.12 46.16C50.0706 46.0941 50.1176 46 50.2 46H91.95C91.9815 46 92.0111 46.0148 92.03 46.04L96.38 51.84C96.4294 51.9059 96.3824 52 96.3 52H54.55C54.5185 52 54.4889 51.9852 54.47 51.96Z" fill="#D9D9D9" stroke="black" stroke-opacity="0.8" stroke-width="0.2" stroke-linecap="round"/>
<path d="M46.536 51.9383L49.9244 46.1297C49.9603 46.068 49.922 45.9896 49.8512 45.9802L42.5633 45.0084C42.5247 45.0033 42.4866 45.021 42.4657 45.0539L39.0784 50.3769C39.0406 50.4362 39.0742 50.5148 39.1431 50.5286L46.43 51.986C46.4719 51.9944 46.5145 51.9752 46.536 51.9383Z" fill="#D9D9D9" stroke="black" stroke-opacity="0.8" stroke-width="0.2" stroke-linecap="round"/>
<path d="M67.5 43C69.8333 43 74.6 42 75 38C75.4 34 63.5 32.3333 57.5 32C54.5 31.6667 50.8 30.9 58 28.5" stroke="black" stroke-opacity="0.9" stroke-width="0.2" stroke-linecap="round"/>
<path d="M59.1034 28.0968L60.6365 27.2433M61.2573 26.4566L61.2498 26.9019L61.8555 27.0058M59.2297 28.0264C59.151 28.066 59.0624 28.0931 58.9719 28.1053C58.8813 28.1176 58.7916 28.1146 58.7108 28.0966C58.6299 28.0787 58.5604 28.0463 58.5085 28.0024C58.4566 27.9585 58.4239 27.9045 58.4133 27.8451C58.4026 27.7857 58.4145 27.7229 58.4477 27.6621C58.4809 27.6014 58.5345 27.5447 58.6036 27.4971C58.6727 27.4494 58.7553 27.4124 58.8439 27.3892C58.9325 27.366 59.0244 27.3573 59.1113 27.3641L59.1053 27.3638C59.0593 27.242 59.0815 27.1053 59.168 26.9778C59.2545 26.8504 59.3997 26.7403 59.578 26.6672C59.7563 26.5941 59.9561 26.5625 60.1421 26.5782C60.3282 26.5938 60.4885 26.6557 60.5947 26.7527C60.7357 26.8821 60.7614 27.0532 60.6875 27.2157C60.8141 27.2096 60.9359 27.2237 61.0434 27.257C61.1508 27.2903 61.241 27.3417 61.3068 27.4074C61.3725 27.4731 61.4121 27.5511 61.4225 27.6354C61.4328 27.7197 61.4135 27.8079 61.3662 27.8932C61.3189 27.9784 61.2448 28.0583 61.1498 28.1267C61.0548 28.195 60.9414 28.2499 60.8186 28.287C60.6958 28.3241 60.5669 28.3424 60.442 28.3404C60.3172 28.3385 60.1997 28.3164 60.099 28.2759C60.0857 28.3386 60.0499 28.4008 59.9948 28.4567C59.9397 28.5127 59.8671 28.5606 59.7837 28.5961C59.7002 28.6316 59.6086 28.6536 59.5171 28.66C59.4257 28.6664 59.3373 28.6571 59.2601 28.6329C59.1829 28.6087 59.1193 28.5703 59.0752 28.5214C59.0311 28.4724 59.0078 28.4144 59.0075 28.3526C59.0072 28.2909 59.0299 28.2273 59.0736 28.1678C59.1172 28.1082 59.1803 28.0546 59.2572 28.0119L59.2297 28.0264Z" stroke="black" stroke-opacity="0.9" stroke-width="0.2" stroke-linecap="round" stroke-linejoin="round"/>
</g>
<defs>
<clipPath id="clip0_28_106">
<rect width="135" height="84" fill="white"/>
</clipPath>
</defs>
</svg>
